<svg width="210" height="29" viewBox="0 0 210 29" fill="none" xmlns="http://www.w3.org/2000/svg">
<path d="M23.3315 0H10.3611L9.28614 6.01638L20.9903 6.03051C26.7546 6.03051 28.4591 8.126 28.4105 11.6049C28.3854 13.3871 27.6139 16.3996 27.2807 17.3763C26.3924 19.9798 24.5679 22.9506 17.7263 22.9389L6.35069 22.9342L5.27185 28.9529H18.2132C22.7779 28.9529 24.7208 28.4214 26.775 27.4698C31.3326 25.3594 34.0446 20.8583 35.1305 14.9801C36.7488 6.22679 34.733 0 23.3315 0Z" fill="#008DE4"/>
<path d="M63.4446 28.9709L64.3588 23.7396H75.4389C76.3092 23.7396 76.9192 23.2159 77.0493 22.3444C77.2234 21.4722 76.7882 20.9493 75.918 20.9493H70.6202C66.4405 20.9493 64.438 18.5083 65.1782 14.3229C65.9183 10.1374 68.7918 7.69409 72.9707 7.69409H85.0081L84.0492 12.9246H73.442C72.5709 12.9246 71.9617 13.4475 71.8307 14.3189C71.6567 15.1912 72.0918 15.7141 72.9629 15.7141H78.2607C82.4396 15.7141 84.442 18.1558 83.7027 22.3405C82.9633 26.5252 80.129 28.9709 75.9532 28.9709H63.4446Z" fill="#008DE4"/>
<path d="M46.5721 28.9661C39.6929 28.9661 36.6014 25.2164 37.8206 18.3278C38.9951 11.4399 43.4359 7.69409 50.3143 7.69409H62.5053L58.7608 28.9709L46.5721 28.9661ZM54.4909 12.9222H51.3547C47.6109 12.9222 45.396 14.5788 44.746 18.3278C44.0498 22.0775 45.443 23.7341 49.1868 23.7341H52.6178L54.4909 12.9222Z" fill="#008DE4"/>
<path d="M100.116 28.9662L102.293 16.5841C102.685 14.1424 101.696 13.0966 99.2573 13.0966H95.7902L93.0038 28.9662H85.9474L91.0491 0H98.1055L96.7507 7.69418H102.035C108.217 7.69418 110.438 10.3974 109.349 16.588L107.169 28.9709L100.116 28.9662Z" fill="#008DE4"/>
<path d="M4.76462 11.4541C1.36737 11.4541 0.880478 13.6713 0.559021 15.0107C0.137991 16.7654 0 17.476 0 17.476H13.2801C16.6773 17.476 17.1642 15.2588 17.4857 13.9194C17.9067 12.1646 18.0447 11.4541 18.0447 11.4541H4.76462Z" fill="#008DE4"/>
<path d="M122.98 27.5036C120.961 26.5065 119.413 25.1114 118.336 23.3181C117.259 21.5249 116.721 19.4425 116.721 17.0709C116.721 13.9169 117.435 11.0457 118.861 8.45739C120.288 5.8691 122.314 3.82046 124.939 2.31146C127.564 0.801934 130.599 0.0469101 134.045 0.0463867C136.387 0.0463867 138.46 0.430572 140.263 1.19894C142.067 1.96732 143.453 3.05235 144.42 4.45405L141.519 6.96173C139.823 4.75188 137.239 3.64643 133.766 3.64538C131.153 3.64538 128.864 4.23841 126.901 5.42446C124.974 6.57015 123.402 8.22783 122.358 10.2137C121.294 12.222 120.763 14.4259 120.764 16.8252C120.764 19.4423 121.605 21.5247 123.287 23.0724C124.97 24.6201 127.373 25.3953 130.495 25.3979C133.968 25.3979 136.822 24.2791 139.056 22.0415L141.399 24.711C140.106 26.1132 138.498 27.1781 136.573 27.9056C134.648 28.6332 132.528 28.9972 130.213 28.9977C127.41 28.9993 124.999 28.5013 122.98 27.5036Z" fill="#008DE4"/>
<path d="M167.785 7.24436L163.545 28.9922H159.829L160.355 26.0496C159.379 26.9691 158.234 27.6892 156.983 28.1694C155.705 28.6687 154.311 28.9181 152.803 28.9176C150.974 28.9176 149.345 28.5468 147.917 27.8051C146.511 27.0839 145.346 25.9667 144.565 24.5908C143.758 23.1891 143.354 21.5446 143.354 19.6571C143.354 17.2311 143.879 15.061 144.929 13.1469C145.935 11.2783 147.438 9.72479 149.271 8.65836C151.114 7.58013 153.18 7.04102 155.469 7.04102C157.299 7.04102 158.867 7.36449 160.173 8.01142C161.45 8.63123 162.502 9.63505 163.182 10.8826L163.909 7.24279L167.785 7.24436ZM157.955 24.3702C159.233 23.6017 160.269 22.4873 160.943 21.1551C161.656 19.7806 162.013 18.2169 162.013 16.464C162.013 14.551 161.461 13.0684 160.358 12.0163C159.254 10.9643 157.679 10.4395 155.632 10.4422C154.043 10.4422 152.616 10.8263 151.351 11.5947C150.086 12.3631 149.09 13.4361 148.363 14.8137C147.637 16.1882 147.273 17.7516 147.273 19.504C147.273 21.3915 147.832 22.8675 148.949 23.9321C150.067 24.9967 151.635 25.529 153.653 25.529C155.242 25.5243 156.676 25.138 157.955 24.3702Z" fill="#008DE4"/>
<path d="M179.799 8.16536C181.173 7.62573 182.842 7.35617 184.807 7.35669L184.08 11.1174C183.745 11.0864 183.408 11.0728 183.071 11.0766C178.628 11.0766 175.936 13.4759 174.995 18.2746L172.854 28.9907H168.978L173.218 7.5569H176.933L176.331 10.7563C177.235 9.5973 178.433 8.70253 179.799 8.16536Z" fill="#008DE4"/>
<path d="M210 0.00610352L204.023 28.9904H200.308L200.833 26.1263C199.858 27.0457 198.712 27.7658 197.462 28.2461C196.182 28.7454 194.789 28.9949 193.282 28.9943C191.452 28.9943 189.824 28.6235 188.396 27.8818C186.989 27.1607 185.824 26.0434 185.044 24.6675C184.236 23.2658 183.833 21.6213 183.833 19.7338C183.833 17.3078 184.358 15.1377 185.408 13.2236C186.413 11.3552 187.916 9.80174 189.748 8.73507C191.592 7.65684 193.658 7.11773 195.947 7.11773C197.776 7.11773 199.358 7.448 200.692 8.10855C202.026 8.7691 203.029 9.7327 203.7 10.9994L206.124 0.00610352H210ZM198.431 24.4485C199.71 23.6801 200.746 22.5656 201.42 21.2334C202.134 19.8589 202.49 18.2952 202.49 16.5423C202.49 14.6292 201.938 13.1467 200.835 12.0946C199.731 11.0425 198.155 10.5178 196.108 10.5204C194.52 10.5204 193.093 10.9046 191.828 11.673C190.563 12.4414 189.567 13.5144 188.84 14.892C188.113 16.2665 187.75 17.8299 187.75 19.5823C187.75 21.4697 188.308 22.9458 189.425 24.0104C190.542 25.075 192.11 25.6073 194.129 25.6073C195.718 25.6026 197.152 25.2163 198.431 24.4485Z" fill="#008DE4"/>
</svg>
